<svg data-v-fde0c5aa="" xmlns="http://www.w3.org/2000/svg" viewBox="0 0 300 300" class="iconAboveSlogan"><!----><defs data-v-fde0c5aa=""><!----></defs><rect data-v-fde0c5aa="" fill="#00acff" x="0" y="0" width="300px" height="300px" class="logo-background-square"></rect><defs data-v-fde0c5aa=""><!----></defs><g data-v-fde0c5aa="" id="ffd8df49-d2d6-4c36-9908-7f3e30aff685" fill="#ffffff" transform="matrix(4.795225620269775,0,0,4.795225620269775,31.390099215459365,139.7328671416915)"><path d="M4.19 6.69L4.19 6.69L4.19 6.69Q3.63 6.69 3.33 6.38L3.33 6.38L3.33 6.38Q3.02 6.06 3.02 5.61L3.02 5.61L3.02 5.61Q3.02 5.50 3.06 5.35L3.06 5.35L3.06 5.35Q3.09 5.19 3.15 5.08L3.15 5.08L3.15 5.08Q3.33 5.17 3.69 5.20L3.69 5.20L3.69 5.20Q4.05 5.24 4.52 5.24L4.52 5.24L4.52 5.24Q5.24 5.24 6.14 5.17L6.14 5.17L6.14 5.17Q7.04 5.11 7.87 5.04L7.87 5.04L7.87 5.04Q8.69 4.97 9.32 4.91L9.32 4.91L9.32 4.91Q9.95 4.84 10.14 4.84L10.14 4.84L10.14 4.84Q10.65 4.84 10.88 5.23L10.88 5.23L10.88 5.23Q11.12 5.61 11.23 6.26L11.23 6.26L11.23 6.26Q10.86 6.23 10.51 6.21L10.51 6.21L10.51 6.21Q10.15 6.19 9.90 6.19L9.90 6.19L9.90 6.19Q9.45 6.19 9.00 6.22L9.00 6.22L9.00 6.22Q8.54 6.24 8.08 6.30L8.08 6.30L8.08 6.30Q7.88 6.71 7.64 7.26L7.64 7.26L7.64 7.26Q7.41 7.81 7.17 8.41L7.17 8.41L7.17 8.41Q6.94 9.02 6.73 9.61L6.73 9.61L6.73 9.61Q6.52 10.21 6.37 10.68L6.37 10.68L6.37 10.68Q6.06 11.61 5.83 12.39L5.83 12.39L5.83 12.39Q5.60 13.17 5.42 13.85L5.42 13.85L5.42 13.85Q5.25 14.53 5.12 15.15L5.12 15.15L5.12 15.15Q5.00 15.76 4.90 16.35L4.90 16.35L4.90 16.35Q3.96 16.21 3.33 15.18L3.33 15.18L3.33 15.18Q3.44 14.74 3.60 14.23L3.60 14.23L3.60 14.23Q3.77 13.72 3.98 13.07L3.98 13.07L3.98 13.07Q4.20 12.42 4.49 11.59L4.49 11.59L4.49 11.59Q4.79 10.77 5.17 9.72L5.17 9.72L5.17 9.72Q5.31 9.32 5.46 8.90L5.46 8.90L5.46 8.90Q5.61 8.47 5.76 8.05L5.76 8.05L5.76 8.05Q5.91 7.63 6.03 7.24L6.03 7.24L6.03 7.24Q6.15 6.85 6.23 6.52L6.23 6.52L6.23 6.52Q5.64 6.59 5.12 6.64L5.12 6.64L5.12 6.64Q4.59 6.69 4.19 6.69ZM13.02 9.38L13.02 9.38L13.02 9.38Q12.96 10.25 12.71 10.87L12.71 10.87L12.71 10.87Q12.46 11.49 11.99 11.96L11.99 11.96L11.99 11.96Q11.52 12.43 10.85 12.81L10.85 12.81L10.85 12.81Q10.18 13.19 9.28 13.54L9.28 13.54L9.28 13.54Q9.28 13.62 9.27 13.71L9.27 13.71L9.27 13.71Q9.27 13.80 9.27 13.90L9.27 13.90L9.27 13.90Q9.27 14.08 9.30 14.28L9.30 14.28L9.30 14.28Q9.32 14.48 9.39 14.64L9.39 14.64L9.39 14.64Q9.46 14.81 9.59 14.92L9.59 14.92L9.59 14.92Q9.72 15.02 9.91 15.02L9.91 15.02L9.91 15.02Q10.29 15.02 10.65 14.85L10.65 14.85L10.65 14.85Q11.02 14.69 11.35 14.44L11.35 14.44L11.35 14.44Q11.68 14.20 11.96 13.91L11.96 13.91L11.96 13.91Q12.25 13.62 12.47 13.38L12.47 13.38L12.47 13.38Q12.61 13.51 12.71 13.62L12.71 13.62L12.71 13.62Q12.08 14.46 11.33 15.02L11.33 15.02L11.33 15.02Q10.58 15.57 9.91 15.72L9.91 15.72L9.91 15.72Q8.95 15.61 8.41 15.02L8.41 15.02L8.41 15.02Q7.87 14.42 7.87 13.58L7.87 13.58L7.87 13.58Q7.87 13.01 8.03 12.41L8.03 12.41L8.03 12.41Q8.19 11.82 8.48 11.26L8.48 11.26L8.48 11.26Q8.76 10.71 9.15 10.22L9.15 10.22L9.15 10.22Q9.53 9.73 9.97 9.37L9.97 9.37L9.97 9.37Q10.42 9.00 10.88 8.79L10.88 8.79L10.88 8.79Q11.35 8.58 11.82 8.58L11.82 8.58L11.82 8.58Q12.46 8.67 13.02 9.38ZM12.05 9.84L12.05 9.84L12.05 9.84Q11.68 9.90 11.27 10.15L11.27 10.15L11.27 10.15Q10.86 10.40 10.51 10.82L10.51 10.82L10.51 10.82Q10.15 11.24 9.86 11.80L9.86 11.80L9.86 11.80Q9.56 12.36 9.39 13.01L9.39 13.01L9.39 13.01Q10.51 12.45 11.26 11.63L11.26 11.63L11.26 11.63Q12.00 10.81 12.05 9.84ZM13.65 14.28L13.65 14.28L13.65 14.28Q13.65 13.66 13.94 12.55L13.94 12.55L13.94 12.55Q14.24 11.44 14.77 9.95L14.77 9.95L14.77 9.95Q15.64 7.59 16.40 6.01L16.40 6.01L16.40 6.01Q17.16 4.44 17.89 3.56L17.89 3.56L17.89 3.56Q18.06 3.58 18.30 3.70L18.30 3.70L18.30 3.70Q18.55 3.81 18.79 3.94L18.79 3.94L18.79 3.94Q19.03 4.07 19.21 4.21L19.21 4.21L19.21 4.21Q19.40 4.35 19.46 4.44L19.46 4.44L19.46 4.44Q18.37 5.73 17.54 7.21L17.54 7.21L17.54 7.21Q16.72 8.69 16.03 10.61L16.03 10.61L16.03 10.61Q15.44 12.26 15.13 13.59L15.13 13.59L15.13 13.59Q14.83 14.91 14.83 15.79L14.83 15.79L14.83 15.79Q14.83 16.03 14.83 16.09L14.83 16.09L14.83 16.09Q14.83 16.14 14.84 16.20L14.84 16.20L14.84 16.20Q14.64 16.17 14.50 16.10L14.50 16.10L14.50 16.10Q14.36 16.03 14.32 15.93L14.32 15.93L14.32 15.93Q14.29 15.86 14.17 15.73L14.17 15.73L14.17 15.73Q14.04 15.60 13.94 15.53L13.94 15.53L13.94 15.53Q13.82 15.44 13.73 15.09L13.73 15.09L13.73 15.09Q13.65 14.73 13.65 14.28ZM21.92 9.38L21.92 9.38L21.92 9.38Q21.87 10.25 21.62 10.87L21.62 10.87L21.62 10.87Q21.36 11.49 20.89 11.96L20.89 11.96L20.89 11.96Q20.43 12.43 19.75 12.81L19.75 12.81L19.75 12.81Q19.08 13.19 18.19 13.54L18.19 13.54L18.19 13.54Q18.19 13.62 18.18 13.71L18.18 13.71L18.18 13.71Q18.17 13.80 18.17 13.90L18.17 13.90L18.17 13.90Q18.17 14.08 18.20 14.28L18.20 14.28L18.20 14.28Q18.23 14.48 18.30 14.64L18.30 14.64L18.30 14.64Q18.37 14.81 18.49 14.92L18.49 14.92L18.49 14.92Q18.62 15.02 18.82 15.02L18.82 15.02L18.82 15.02Q19.19 15.02 19.56 14.85L19.56 14.85L19.56 14.85Q19.92 14.69 20.25 14.44L20.25 14.44L20.25 14.44Q20.58 14.20 20.87 13.91L20.87 13.91L20.87 13.91Q21.15 13.62 21.38 13.38L21.38 13.38L21.38 13.38Q21.52 13.51 21.62 13.62L21.62 13.62L21.62 13.62Q20.99 14.46 20.24 15.02L20.24 15.02L20.24 15.02Q19.49 15.57 18.82 15.72L18.82 15.72L18.82 15.72Q17.85 15.61 17.31 15.02L17.31 15.02L17.31 15.02Q16.77 14.42 16.77 13.58L16.77 13.58L16.77 13.58Q16.77 13.01 16.93 12.41L16.93 12.41L16.93 12.41Q17.09 11.82 17.38 11.26L17.38 11.26L17.38 11.26Q17.67 10.71 18.05 10.22L18.05 10.22L18.05 10.22Q18.44 9.73 18.88 9.37L18.88 9.37L18.88 9.37Q19.32 9.00 19.79 8.79L19.79 8.79L19.79 8.79Q20.26 8.58 20.72 8.58L20.72 8.58L20.72 8.58Q21.36 8.67 21.92 9.38ZM20.96 9.84L20.96 9.84L20.96 9.84Q20.58 9.90 20.17 10.15L20.17 10.15L20.17 10.15Q19.77 10.40 19.41 10.82L19.41 10.82L19.41 10.82Q19.05 11.24 18.76 11.80L18.76 11.80L18.76 11.80Q18.47 12.36 18.30 13.01L18.30 13.01L18.30 13.01Q19.42 12.45 20.16 11.63L20.16 11.63L20.16 11.63Q20.90 10.81 20.96 9.84ZM21.55 19.81L21.55 19.81L21.55 19.81Q21.35 19.75 21.32 19.39L21.32 19.39L21.32 19.39Q21.27 19.21 21.25 18.96L21.25 18.96L21.25 18.96Q21.22 18.70 21.22 18.38L21.22 18.38L21.22 18.38Q21.22 18.09 21.32 17.58L21.32 17.58L21.32 17.58Q21.42 17.07 21.60 16.42L21.60 16.42L21.60 16.42Q21.77 15.78 22.02 15.03L22.02 15.03L22.02 15.03Q22.27 14.28 22.58 13.51L22.58 13.51L22.58 13.51Q22.96 12.54 23.24 11.84L23.24 11.84L23.24 11.84Q23.52 11.13 23.71 10.61L23.71 10.61L23.71 10.61Q23.90 10.09 24.02 9.76L24.02 9.76L24.02 9.76Q24.14 9.42 24.21 9.18L24.21 9.18L24.21 9.18Q24.26 9.02 24.37 8.78L24.37 8.78L24.37 8.78Q24.49 8.54 24.63 8.29L24.63 8.29L24.63 8.29Q24.78 8.05 24.93 7.83L24.93 7.83L24.93 7.83Q25.09 7.62 25.21 7.50L25.21 7.50L25.21 7.50Q25.70 7.57 26.14 7.76L26.14 7.76L26.14 7.76Q26.57 7.94 26.67 8.11L26.67 8.11L26.67 8.11Q26.47 8.29 26.22 8.67L26.22 8.67L26.22 8.67Q25.97 9.06 25.73 9.51L25.73 9.51L25.73 9.51Q25.49 9.97 25.30 10.44L25.30 10.44L25.30 10.44Q25.10 10.92 25.00 11.28L25.00 11.28L25.00 11.28Q25.14 11.05 25.37 10.77L25.37 10.77L25.37 10.77Q25.59 10.49 26.05 10.00L26.05 10.00L26.05 10.00Q26.57 9.46 27.03 9.18L27.03 9.18L27.03 9.18Q27.48 8.89 27.82 8.89L27.82 8.89L27.82 8.89Q28.35 8.89 28.69 9.18L28.69 9.18L28.69 9.18Q29.04 9.48 29.04 9.94L29.04 9.94L29.04 9.94Q29.04 10.95 28.70 11.94L28.70 11.94L28.70 11.94Q28.36 12.92 27.73 13.72L27.73 13.72L27.73 13.72Q27.50 14.03 27.17 14.31L27.17 14.31L27.17 14.31Q26.85 14.59 26.50 14.80L26.50 14.80L26.50 14.80Q26.15 15.02 25.82 15.15L25.82 15.15L25.82 15.15Q25.48 15.27 25.21 15.27L25.21 15.27L25.21 15.27Q24.96 15.27 24.77 15.17L24.77 15.17L24.77 15.17Q24.58 15.06 24.51 14.91L24.51 14.91L24.51 14.91Q25.06 14.59 25.58 14.01L25.58 14.01L25.58 14.01Q26.10 13.44 26.54 12.69L26.54 12.69L26.54 12.69Q26.98 11.94 27.31 11.07L27.31 11.07L27.31 11.07Q27.64 10.21 27.80 9.31L27.80 9.31L27.80 9.31Q27.27 9.59 26.84 9.92L26.84 9.92L26.84 9.92Q26.42 10.25 26.00 10.78L26.00 10.78L26.00 10.78Q25.49 11.40 25.20 11.77L25.20 11.77L25.20 11.77Q24.91 12.15 24.72 12.42L24.72 12.42L24.72 12.42Q24.53 12.68 24.41 12.91L24.41 12.91L24.41 12.91Q24.29 13.15 24.15 13.48L24.15 13.48L24.15 13.48Q23.95 13.93 23.70 14.67L23.70 14.67L23.70 14.67Q23.44 15.40 23.16 16.31L23.16 16.31L23.16 16.31Q22.89 17.22 22.62 18.25L22.62 18.25L22.62 18.25Q22.34 19.28 22.09 20.30L22.09 20.30L22.09 20.30Q21.94 20.27 21.83 20.08L21.83 20.08L21.83 20.08Q21.71 19.95 21.66 19.89L21.66 19.89L21.66 19.89Q21.62 19.84 21.55 19.81ZM31.19 15.67L31.19 15.67L31.19 15.67Q30.39 15.58 29.92 14.97L29.92 14.97L29.92 14.97Q29.44 14.35 29.44 13.40L29.44 13.40L29.44 13.40Q29.44 12.84 29.61 12.24L29.61 12.24L29.61 12.24Q29.78 11.63 30.09 11.07L30.09 11.07L30.09 11.07Q30.39 10.50 30.81 10.00L30.81 10.00L30.81 10.00Q31.23 9.49 31.72 9.13L31.72 9.13L31.72 9.13Q32.49 8.55 33.17 8.55L33.17 8.55L33.17 8.55Q33.61 8.79 34.05 9.55L34.05 9.55L34.05 9.55Q34.12 9.55 34.17 9.54L34.17 9.54L34.17 9.54Q34.23 9.53 34.30 9.53L34.30 9.53L34.30 9.53Q35.04 9.53 35.04 10.85L35.04 10.85L35.04 10.85Q35.04 11.73 34.76 12.52L34.76 12.52L34.76 12.52Q34.47 13.31 33.96 13.96L33.96 13.96L33.96 13.96Q33.45 14.60 32.74 15.04L32.74 15.04L32.74 15.04Q32.03 15.48 31.19 15.67ZM31.91 11.26L31.91 11.26L31.91 11.26Q31.67 11.58 31.46 11.96L31.46 11.96L31.46 11.96Q31.25 12.33 31.09 12.72L31.09 12.72L31.09 12.72Q30.94 13.10 30.86 13.46L30.86 13.46L30.86 13.46Q30.77 13.82 30.77 14.10L30.77 14.10L30.77 14.10Q30.77 14.43 30.88 14.74L30.88 14.74L30.88 14.74Q31.00 15.05 31.14 15.09L31.14 15.09L31.14 15.09Q31.77 14.95 32.29 14.57L32.29 14.57L32.29 14.57Q32.82 14.18 33.20 13.61L33.20 13.61L33.20 13.61Q33.59 13.03 33.80 12.31L33.80 12.31L33.80 12.31Q34.02 11.58 34.02 10.75L34.02 10.75L34.02 10.75Q34.02 10.39 33.98 10.18L33.98 10.18L33.98 10.18Q33.94 9.97 33.84 9.81L33.84 9.81L33.84 9.81Q33.22 10.00 32.74 10.40L32.74 10.40L32.74 10.40Q32.26 10.81 31.91 11.26ZM35.38 14.90L35.38 14.90L35.38 14.90Q35.45 14.49 35.62 13.82L35.62 13.82L35.62 13.82Q35.80 13.16 36.04 12.41L36.04 12.41L36.04 12.41Q36.27 11.66 36.54 10.91L36.54 10.91L36.54 10.91Q36.81 10.15 37.06 9.55L37.06 9.55L37.06 9.55Q37.24 9.11 37.38 8.87L37.38 8.87L37.38 8.87Q37.52 8.62 37.69 8.46L37.69 8.46L37.69 8.46Q37.88 8.48 38.09 8.55L38.09 8.55L38.09 8.55Q38.30 8.62 38.50 8.72L38.50 8.72L38.50 8.72Q38.70 8.82 38.85 8.93L38.85 8.93L38.85 8.93Q39.00 9.03 39.09 9.13L39.09 9.13L39.09 9.13Q38.71 9.58 38.42 10.15L38.42 10.15L38.42 10.15Q38.14 10.72 37.84 11.62L37.84 11.62L37.84 11.62Q38.60 10.95 39.18 10.33L39.18 10.33L39.18 10.33Q39.76 9.72 40.26 8.96L40.26 8.96L40.26 8.96Q40.35 8.89 40.56 8.89L40.56 8.89L40.56 8.89Q40.75 8.89 40.94 8.95L40.94 8.95L40.94 8.95Q41.12 9.02 41.19 9.13L41.19 9.13L41.19 9.13Q40.94 9.80 40.94 10.46L40.94 10.46L40.94 10.46Q40.94 11.07 41.12 11.38L41.12 11.38L41.12 11.38Q41.10 11.47 40.93 11.70L40.93 11.70L40.93 11.70Q40.75 11.94 40.54 12.15L40.54 12.15L40.54 12.15Q40.17 11.96 39.87 11.61L39.87 11.61L39.87 11.61Q39.58 11.27 39.44 10.86L39.44 10.86L39.44 10.86Q38.78 11.33 38.32 11.77L38.32 11.77L38.32 11.77Q37.86 12.21 37.53 12.75L37.53 12.75L37.53 12.75Q37.20 13.29 36.97 13.99L36.97 13.99L36.97 13.99Q36.74 14.69 36.53 15.65L36.53 15.65L36.53 15.65Q36.40 15.64 36.23 15.56L36.23 15.56L36.23 15.56Q36.05 15.48 35.88 15.37L35.88 15.37L35.88 15.37Q35.70 15.26 35.56 15.13L35.56 15.13L35.56 15.13Q35.42 15.01 35.38 14.90ZM42.98 9.81L42.18 9.81L42.18 9.81Q42.11 9.73 42.06 9.46L42.06 9.46L42.06 9.46Q42.00 9.18 42.00 8.99L42.00 8.99L42.00 8.99Q42.36 9.02 42.70 9.04L42.70 9.04L42.70 9.04Q43.04 9.06 43.32 9.07L43.32 9.07L43.32 9.07Q43.53 8.65 43.77 8.24L43.77 8.24L43.77 8.24Q44.02 7.83 44.25 7.48L44.25 7.48L44.25 7.48Q44.48 7.14 44.68 6.90L44.68 6.90L44.68 6.90Q44.88 6.66 45.00 6.59L45.00 6.59L45.00 6.59Q45.14 6.59 45.35 6.64L45.35 6.64L45.35 6.64Q45.57 6.69 45.79 6.77L45.79 6.77L45.79 6.77Q46.02 6.85 46.20 6.93L46.20 6.93L46.20 6.93Q46.38 7.01 46.45 7.10L46.45 7.10L46.45 7.10Q46.03 7.63 45.73 8.09L45.73 8.09L45.73 8.09Q45.43 8.54 45.08 9.13L45.08 9.13L45.08 9.13Q45.36 9.13 45.65 9.11L45.65 9.11L45.65 9.11Q45.93 9.10 46.23 9.07L46.23 9.07L46.23 9.07Q46.30 9.14 46.34 9.25L46.34 9.25L46.34 9.25Q46.38 9.35 46.38 9.46L46.38 9.46L46.38 9.46Q45.70 9.72 44.72 9.74L44.72 9.74L44.72 9.74Q44.37 10.42 44.09 11.08L44.09 11.08L44.09 11.08Q43.82 11.75 43.63 12.36L43.63 12.36L43.63 12.36Q43.44 12.98 43.34 13.52L43.34 13.52L43.34 13.52Q43.23 14.07 43.23 14.50L43.23 14.50L43.23 14.50Q43.23 15.12 43.69 15.19L43.69 15.19L43.69 15.19Q44.11 15.13 44.49 14.98L44.49 14.98L44.49 14.98Q44.87 14.83 45.16 14.59L45.16 14.59L45.16 14.59Q45.25 14.71 45.26 14.80L45.26 14.80L45.26 14.80Q45.18 14.92 44.98 15.09L44.98 15.09L44.98 15.09Q44.77 15.26 44.53 15.42L44.53 15.42L44.53 15.42Q44.30 15.58 44.07 15.69L44.07 15.69L44.07 15.69Q43.85 15.81 43.74 15.82L43.74 15.82L43.74 15.82Q43.39 15.81 43.04 15.67L43.04 15.67L43.04 15.67Q42.69 15.53 42.40 15.32L42.40 15.32L42.40 15.32Q42.11 15.11 41.93 14.85L41.93 14.85L41.93 14.85Q41.75 14.59 41.75 14.34L41.75 14.34L41.75 14.34Q41.75 14 41.84 13.49L41.84 13.49L41.84 13.49Q41.93 12.98 42.10 12.38L42.10 12.38L42.10 12.38Q42.27 11.77 42.49 11.12L42.49 11.12L42.49 11.12Q42.71 10.46 42.98 9.81L42.98 9.81Z"></path></g><defs data-v-fde0c5aa=""><!----></defs><g data-v-fde0c5aa="" id="539a1346-a54e-4db8-aa10-f53695be62b8" stroke="none" fill="#010033" transform="matrix(1.1195906400680542,0,0,1.1195906400680542,95.05299043235593,31.043275306664228)"><path d="M52.519 60.954C52 64 50 66 49 69c16-8 16-30 4-41 16 11 17 32 15 50 5-2 5-8 9-11-2 3-2 6-2 9 0 1 2 2 3 1 10-10 13-25 9-38v3C78 19 48 2 27 22c-5 5-7 11-7 17 0 5 2 10 6 14 3 3 7 3 9 6-12 5-21-10-21-20 1-7 3-14 8-20 6-6 13-10 21-11h11c6 1 11 2 16 5s9 6 12 11c5 7 8 15 9 23 1 11-2 21-7 31-2 4-6 7-9 10-6 4-12 8-19 8-4 0-8 1-12-1-2-2-1-5-3-7 1 2 3 1 5 1 1-3-3-4-4-4C26 78 6 68 7 49c4 14 18 24 33 21 4-1 7-3 10-5.682 1.751-2.071 2.519-3.364 2.519-3.364z"></path></g><defs data-v-fde0c5aa=""><!----></defs><g data-v-fde0c5aa="" id="60670e6a-40d4-434a-b6da-7814454dbb7c" fill="#010033" transform="matrix(0.8237131237983704,0,0,0.8237131237983704,69.41614621635392,244.16823395118504)"><path d="M4.19 6.69L4.19 6.69L4.19 6.69Q3.63 6.69 3.33 6.38L3.33 6.38L3.33 6.38Q3.02 6.06 3.02 5.61L3.02 5.61L3.02 5.61Q3.02 5.50 3.06 5.35L3.06 5.35L3.06 5.35Q3.09 5.19 3.15 5.08L3.15 5.08L3.15 5.08Q3.33 5.17 3.69 5.20L3.69 5.20L3.69 5.20Q4.05 5.24 4.52 5.24L4.52 5.24L4.52 5.24Q5.24 5.24 6.14 5.17L6.14 5.17L6.14 5.17Q7.04 5.11 7.87 5.04L7.87 5.04L7.87 5.04Q8.69 4.97 9.32 4.91L9.32 4.91L9.32 4.91Q9.95 4.84 10.14 4.84L10.14 4.84L10.14 4.84Q10.65 4.84 10.88 5.23L10.88 5.23L10.88 5.23Q11.12 5.61 11.23 6.26L11.23 6.26L11.23 6.26Q10.86 6.23 10.51 6.21L10.51 6.21L10.51 6.21Q10.15 6.19 9.90 6.19L9.90 6.19L9.90 6.19Q9.45 6.19 9.00 6.22L9.00 6.22L9.00 6.22Q8.54 6.24 8.08 6.30L8.08 6.30L8.08 6.30Q7.88 6.71 7.64 7.26L7.64 7.26L7.64 7.26Q7.41 7.81 7.17 8.41L7.17 8.41L7.17 8.41Q6.94 9.02 6.73 9.61L6.73 9.61L6.73 9.61Q6.52 10.21 6.37 10.68L6.37 10.68L6.37 10.68Q6.06 11.61 5.83 12.39L5.83 12.39L5.83 12.39Q5.60 13.17 5.42 13.85L5.42 13.85L5.42 13.85Q5.25 14.53 5.12 15.15L5.12 15.15L5.12 15.15Q5.00 15.76 4.90 16.35L4.90 16.35L4.90 16.35Q3.96 16.21 3.33 15.18L3.33 15.18L3.33 15.18Q3.44 14.74 3.60 14.23L3.60 14.23L3.60 14.23Q3.77 13.72 3.98 13.07L3.98 13.07L3.98 13.07Q4.20 12.42 4.49 11.59L4.49 11.59L4.49 11.59Q4.79 10.77 5.17 9.72L5.17 9.72L5.17 9.72Q5.31 9.32 5.46 8.90L5.46 8.90L5.46 8.90Q5.61 8.47 5.76 8.05L5.76 8.05L5.76 8.05Q5.91 7.63 6.03 7.24L6.03 7.24L6.03 7.24Q6.15 6.85 6.23 6.52L6.23 6.52L6.23 6.52Q5.64 6.59 5.12 6.64L5.12 6.64L5.12 6.64Q4.59 6.69 4.19 6.69ZM16.37 14.94L16.37 14.94L16.37 14.94Q16.37 14.45 16.46 13.78L16.46 13.78L16.46 13.78Q16.56 13.12 16.75 12.36L16.75 12.36L16.75 12.36Q16.94 11.61 17.20 10.78L17.20 10.78L17.20 10.78Q17.46 9.95 17.78 9.13L17.78 9.13L17.78 9.13Q18.06 8.39 18.43 7.63L18.43 7.63L18.43 7.63Q18.80 6.87 19.24 6.15L19.24 6.15L19.24 6.15Q19.67 5.42 20.14 4.76L20.14 4.76L20.14 4.76Q20.61 4.10 21.08 3.56L21.08 3.56L21.08 3.56Q21.31 3.56 21.57 3.61L21.57 3.61L21.57 3.61Q21.83 3.67 22.07 3.76L22.07 3.76L22.07 3.76Q22.32 3.85 22.52 3.98L22.52 3.98L22.52 3.98Q22.72 4.10 22.85 4.23L22.85 4.23L22.85 4.23Q21.80 5.31 20.96 6.40L20.96 6.40L20.96 6.40Q20.12 7.50 19.63 8.47L19.63 8.47L19.63 8.47Q19.36 9.00 19.14 9.46L19.14 9.46L19.14 9.46Q18.93 9.93 18.75 10.38L18.75 10.38L18.75 10.38Q18.56 10.84 18.42 11.29L18.42 11.29L18.42 11.29Q18.27 11.75 18.14 12.25L18.14 12.25L18.14 12.25Q20.83 8.82 22.13 8.82L22.13 8.82L22.13 8.82Q22.50 8.82 22.92 9.06L22.92 9.06L22.92 9.06Q23.34 9.30 23.66 9.70L23.66 9.70L23.66 9.70Q23.23 10.18 22.76 10.85L22.76 10.85L22.76 10.85Q22.30 11.52 21.92 12.20L21.92 12.20L21.92 12.20Q21.53 12.88 21.29 13.46L21.29 13.46L21.29 13.46Q21.04 14.04 21.04 14.32L21.04 14.32L21.04 14.32Q21.04 14.46 21.08 14.51L21.08 14.51L21.08 14.51Q21.13 14.56 21.27 14.56L21.27 14.56L21.27 14.56Q21.48 14.56 21.60 14.50L21.60 14.50L21.60 14.50Q21.73 14.45 21.76 14.45L21.76 14.45L21.76 14.45Q21.83 14.56 21.84 14.60L21.84 14.60L21.84 14.60Q21.85 14.64 21.85 14.67L21.85 14.67L21.85 14.67Q21.85 14.73 21.69 14.83L21.69 14.83L21.69 14.83Q21.52 14.94 21.29 15.04L21.29 15.04L21.29 15.04Q21.06 15.15 20.83 15.23L20.83 15.23L20.83 15.23Q20.61 15.32 20.50 15.32L20.50 15.32L20.50 15.32Q20.36 15.32 20.22 15.24L20.22 15.24L20.22 15.24Q20.08 15.16 19.97 15.04L19.97 15.04L19.97 15.04Q19.87 14.91 19.80 14.76L19.80 14.76L19.80 14.76Q19.74 14.60 19.74 14.43L19.74 14.43L19.74 14.43Q19.74 14.22 19.86 13.81L19.86 13.81L19.86 13.81Q19.98 13.40 20.19 12.85L20.19 12.85L20.19 12.85Q20.40 12.29 20.69 11.63L20.69 11.63L20.69 11.63Q20.99 10.98 21.32 10.29L21.32 10.29L21.32 10.29Q21.32 10.23 21.27 10.23L21.27 10.23L21.27 10.23Q21.22 10.23 21.05 10.35L21.05 10.35L21.05 10.35Q20.87 10.46 20.72 10.57L20.72 10.57L20.72 10.57Q20.22 10.95 19.70 11.50L19.70 11.50L19.70 11.50Q19.19 12.05 18.71 12.71L18.71 12.71L18.71 12.71Q18.23 13.37 17.80 14.11L17.80 14.11L17.80 14.11Q17.37 14.84 17.07 15.58L17.07 15.58L17.07 15.58Q17.02 15.68 16.94 15.76L16.94 15.76L16.94 15.76Q16.86 15.85 16.80 15.85L16.80 15.85L16.80 15.85Q16.76 15.85 16.68 15.75L16.68 15.75L16.68 15.75Q16.60 15.65 16.54 15.51L16.54 15.51L16.54 15.51Q16.48 15.36 16.42 15.20L16.42 15.20L16.42 15.20Q16.37 15.05 16.37 14.94ZM35.63 9.38L35.63 9.38L35.63 9.38Q35.57 10.25 35.32 10.87L35.32 10.87L35.32 10.87Q35.07 11.49 34.60 11.96L34.60 11.96L34.60 11.96Q34.13 12.43 33.46 12.81L33.46 12.81L33.46 12.81Q32.79 13.19 31.89 13.54L31.89 13.54L31.89 13.54Q31.89 13.62 31.88 13.71L31.88 13.71L31.88 13.71Q31.88 13.80 31.88 13.90L31.88 13.90L31.88 13.90Q31.88 14.08 31.91 14.28L31.91 14.28L31.91 14.28Q31.93 14.48 32.00 14.64L32.00 14.64L32.00 14.64Q32.07 14.81 32.20 14.92L32.20 14.92L32.20 14.92Q32.33 15.02 32.52 15.02L32.52 15.02L32.52 15.02Q32.90 15.02 33.26 14.85L33.26 14.85L33.26 14.85Q33.63 14.69 33.96 14.44L33.96 14.44L33.96 14.44Q34.29 14.20 34.57 13.91L34.57 13.91L34.57 13.91Q34.86 13.62 35.08 13.38L35.08 13.38L35.08 13.38Q35.22 13.51 35.32 13.62L35.32 13.62L35.32 13.62Q34.69 14.46 33.94 15.02L33.94 15.02L33.94 15.02Q33.19 15.57 32.52 15.72L32.52 15.72L32.52 15.72Q31.56 15.61 31.02 15.02L31.02 15.02L31.02 15.02Q30.48 14.42 30.48 13.58L30.48 13.58L30.48 13.58Q30.48 13.01 30.64 12.41L30.64 12.41L30.64 12.41Q30.80 11.82 31.09 11.26L31.09 11.26L31.09 11.26Q31.37 10.71 31.76 10.22L31.76 10.22L31.76 10.22Q32.14 9.73 32.59 9.37L32.59 9.37L32.59 9.37Q33.03 9.00 33.49 8.79L33.49 8.79L33.49 8.79Q33.96 8.58 34.43 8.58L34.43 8.58L34.43 8.58Q35.07 8.67 35.63 9.38ZM34.66 9.84L34.66 9.84L34.66 9.84Q34.29 9.90 33.88 10.15L33.88 10.15L33.88 10.15Q33.47 10.40 33.12 10.82L33.12 10.82L33.12 10.82Q32.76 11.24 32.47 11.80L32.47 11.80L32.47 11.80Q32.17 12.36 32.00 13.01L32.00 13.01L32.00 13.01Q33.12 12.45 33.87 11.63L33.87 11.63L33.87 11.63Q34.61 10.81 34.66 9.84ZM51.37 10.88L51.37 10.88L51.37 10.88Q51.14 10.89 50.82 11.16L50.82 11.16L50.82 11.16Q50.50 11.44 50.13 11.87L50.13 11.87L50.13 11.87Q49.76 12.29 49.36 12.81L49.36 12.81L49.36 12.81Q48.96 13.33 48.59 13.84L48.59 13.84L48.59 13.84Q48.22 14.35 47.89 14.80L47.89 14.80L47.89 14.80Q47.57 15.25 47.35 15.51L47.35 15.51L47.35 15.51Q47.04 15.39 46.82 15.14L46.82 15.14L46.82 15.14Q46.59 14.90 46.49 14.53L46.49 14.53L46.49 14.53Q46.56 14.10 46.69 13.63L46.69 13.63L46.69 13.63Q46.82 13.16 47.02 12.66L47.02 12.66L47.02 12.66Q47.22 12.15 47.52 11.60L47.52 11.60L47.52 11.60Q47.82 11.05 48.26 10.43L48.26 10.43L48.26 10.43Q48.05 10.44 47.68 10.73L47.68 10.73L47.68 10.73Q47.32 11.02 46.90 11.47L46.90 11.47L46.90 11.47Q46.48 11.93 46.03 12.50L46.03 12.50L46.03 12.50Q45.58 13.06 45.19 13.61L45.19 13.61L45.19 13.61Q44.67 14.34 44.33 14.88L44.33 14.88L44.33 14.88Q43.99 15.43 43.83 15.53L43.83 15.53L43.83 15.53Q43.47 15.26 43.33 14.95L43.33 14.95L43.33 14.95Q43.19 14.64 43.12 14.27L43.12 14.27L43.12 14.27Q43.13 13.93 43.22 13.43L43.22 13.43L43.22 13.43Q43.32 12.92 43.48 12.39L43.48 12.39L43.48 12.39Q43.81 11.37 44.32 10.36L44.32 10.36L44.32 10.36Q44.83 9.35 45.30 8.51L45.30 8.51L45.30 8.51Q45.70 8.60 46.01 8.78L46.01 8.78L46.01 8.78Q46.33 8.96 46.68 9.31L46.68 9.31L46.68 9.31Q46.54 9.74 46.24 10.23L46.24 10.23L46.24 10.23Q45.95 10.71 45.63 11.24L45.63 11.24L45.63 11.24Q45.30 11.77 45.04 12.33L45.04 12.33L45.04 12.33Q44.77 12.89 44.69 13.47L44.69 13.47L44.69 13.47Q45.08 12.91 45.62 12.18L45.62 12.18L45.62 12.18Q46.16 11.45 46.72 10.81L46.72 10.81L46.72 10.81Q47.29 10.16 47.85 9.72L47.85 9.72L47.85 9.72Q48.41 9.27 48.86 9.27L48.86 9.27L48.86 9.27Q49.03 9.27 49.22 9.32L49.22 9.32L49.22 9.32Q49.42 9.38 49.59 9.46L49.59 9.46L49.59 9.46Q49.76 9.55 49.87 9.63L49.87 9.63L49.87 9.63Q49.98 9.70 49.99 9.74L49.99 9.74L49.99 9.74Q49.92 10.02 49.66 10.51L49.66 10.51L49.66 10.51Q49.41 10.99 49.11 11.52L49.11 11.52L49.11 11.52Q48.82 12.05 48.57 12.55L48.57 12.55L48.57 12.55Q48.31 13.05 48.27 13.34L48.27 13.34L48.27 13.34Q48.96 12.40 49.56 11.64L49.56 11.64L49.56 11.64Q50.16 10.88 50.69 10.33L50.69 10.33L50.69 10.33Q51.23 9.79 51.68 9.49L51.68 9.49L51.68 9.49Q52.14 9.20 52.54 9.20L52.54 9.20L52.54 9.20Q52.82 9.20 53.07 9.34L53.07 9.34L53.07 9.34Q53.31 9.49 53.41 9.77L53.41 9.77L53.41 9.77Q53.28 10.19 53.00 10.78L53.00 10.78L53.00 10.78Q52.71 11.37 52.42 12.02L52.42 12.02L52.42 12.02Q52.12 12.67 51.89 13.30L51.89 13.30L51.89 13.30Q51.66 13.93 51.66 14.43L51.66 14.43L51.66 14.43Q51.66 14.73 51.74 14.82L51.74 14.82L51.74 14.82Q51.83 14.91 51.98 14.91L51.98 14.91L51.98 14.91Q52.15 14.91 52.30 14.85L52.30 14.85L52.30 14.85Q52.44 14.78 52.51 14.78L52.51 14.78L52.51 14.78Q52.60 14.84 52.61 14.92L52.61 14.92L52.61 14.92Q52.63 15.01 52.63 15.08L52.63 15.08L52.63 15.08Q52.35 15.30 52.05 15.45L52.05 15.45L52.05 15.45Q51.76 15.60 51.39 15.60L51.39 15.60L51.39 15.60Q51.06 15.60 50.84 15.48L50.84 15.48L50.84 15.48Q50.62 15.37 50.48 15.18L50.48 15.18L50.48 15.18Q50.34 14.98 50.29 14.73L50.29 14.73L50.29 14.73Q50.23 14.48 50.23 14.18L50.23 14.18L50.23 14.18Q50.23 13.71 50.36 13.24L50.36 13.24L50.36 13.24Q50.48 12.77 50.66 12.34L50.66 12.34L50.66 12.34Q50.83 11.91 51.03 11.54L51.03 11.54L51.03 11.54Q51.23 11.17 51.37 10.88ZM66.00 9.38L66.00 9.38L66.00 9.38Q65.94 10.25 65.69 10.87L65.69 10.87L65.69 10.87Q65.44 11.49 64.97 11.96L64.97 11.96L64.97 11.96Q64.50 12.43 63.83 12.81L63.83 12.81L63.83 12.81Q63.15 13.19 62.26 13.54L62.26 13.54L62.26 13.54Q62.26 13.62 62.25 13.71L62.25 13.71L62.25 13.71Q62.24 13.80 62.24 13.90L62.24 13.90L62.24 13.90Q62.24 14.08 62.27 14.28L62.27 14.28L62.27 14.28Q62.30 14.48 62.37 14.64L62.37 14.64L62.37 14.64Q62.44 14.81 62.57 14.92L62.57 14.92L62.57 14.92Q62.69 15.02 62.89 15.02L62.89 15.02L62.89 15.02Q63.27 15.02 63.63 14.85L63.63 14.85L63.63 14.85Q63.99 14.69 64.32 14.44L64.32 14.44L64.32 14.44Q64.65 14.20 64.94 13.91L64.94 13.91L64.94 13.91Q65.23 13.62 65.45 13.38L65.45 13.38L65.45 13.38Q65.59 13.51 65.69 13.62L65.69 13.62L65.69 13.62Q65.06 14.46 64.31 15.02L64.31 15.02L64.31 15.02Q63.56 15.57 62.89 15.72L62.89 15.72L62.89 15.72Q61.92 15.61 61.38 15.02L61.38 15.02L61.38 15.02Q60.84 14.42 60.84 13.58L60.84 13.58L60.84 13.58Q60.84 13.01 61.00 12.41L61.00 12.41L61.00 12.41Q61.17 11.82 61.45 11.26L61.45 11.26L61.45 11.26Q61.74 10.71 62.13 10.22L62.13 10.22L62.13 10.22Q62.51 9.73 62.95 9.37L62.95 9.37L62.95 9.37Q63.39 9.00 63.86 8.79L63.86 8.79L63.86 8.79Q64.33 8.58 64.79 8.58L64.79 8.58L64.79 8.58Q65.44 8.67 66.00 9.38ZM65.03 9.84L65.03 9.84L65.03 9.84Q64.65 9.90 64.25 10.15L64.25 10.15L64.25 10.15Q63.84 10.40 63.48 10.82L63.48 10.82L63.48 10.82Q63.13 11.24 62.83 11.80L62.83 11.80L62.83 11.80Q62.54 12.36 62.37 13.01L62.37 13.01L62.37 13.01Q63.49 12.45 64.23 11.63L64.23 11.63L64.23 11.63Q64.97 10.81 65.03 9.84ZM84.74 19.22L84.74 19.22L84.74 19.22Q84.39 19.08 84.32 18.69L84.32 18.69L84.32 18.69Q84.27 18.31 83.85 18.07L83.85 18.07L83.85 18.07Q83.96 17.36 84.10 16.63L84.10 16.63L84.10 16.63Q84.24 15.90 84.45 14.97L84.45 14.97L84.45 14.97Q84.67 14.04 85.00 12.80L85.00 12.80L85.00 12.80Q85.33 11.56 85.83 9.80L85.83 9.80L85.83 9.80Q85.37 9.80 85.11 9.81L85.11 9.81L85.11 9.81Q84.84 9.83 84.59 9.87L84.59 9.87L84.59 9.87Q84.53 9.81 84.50 9.72L84.50 9.72L84.50 9.72Q84.46 9.62 84.46 9.53L84.46 9.53L84.46 9.53Q84.60 9.48 85.04 9.39L85.04 9.39L85.04 9.39Q85.47 9.30 85.99 9.23L85.99 9.23L85.99 9.23Q86.32 8.16 86.76 7.32L86.76 7.32L86.76 7.32Q87.19 6.47 87.70 5.87L87.70 5.87L87.70 5.87Q88.20 5.26 88.76 4.94L88.76 4.94L88.76 4.94Q89.32 4.62 89.89 4.62L89.89 4.62L89.89 4.62Q90.06 4.62 90.22 4.64L90.22 4.64L90.22 4.64Q90.37 4.66 90.45 4.66L90.45 4.66L90.45 4.66Q90.58 4.56 90.79 4.49L90.79 4.49L90.79 4.49Q91.00 4.41 91.15 4.41L91.15 4.41L91.15 4.41Q91.32 4.41 91.59 4.59L91.59 4.59L91.59 4.59Q91.48 4.79 91.35 5.12L91.35 5.12L91.35 5.12Q91.22 5.46 91.14 5.78L91.14 5.78L91.14 5.78Q90.79 6.82 90.40 7.13L90.40 7.13L90.40 7.13Q90.24 7.13 90.23 6.72L90.23 6.72L90.23 6.72Q90.22 6.43 90.15 6.15L90.15 6.15L90.15 6.15Q90.09 6.02 90.07 5.92L90.07 5.92L90.07 5.92Q90.05 5.82 90.05 5.67L90.05 5.67L90.05 5.67Q90.05 5.59 90.06 5.47L90.06 5.47L90.06 5.47Q90.08 5.35 90.12 5.07L90.12 5.07L90.12 5.07Q89.88 5.07 89.59 5.36L89.59 5.36L89.59 5.36Q89.31 5.66 88.99 6.20L88.99 6.20L88.99 6.20Q88.68 6.73 88.35 7.48L88.35 7.48L88.35 7.48Q88.03 8.22 87.74 9.11L87.74 9.11L88.91 9.07L88.91 9.07Q88.98 9.14 89.03 9.39L89.03 9.39L89.03 9.39Q89.08 9.63 89.10 9.90L89.10 9.90L87.56 9.81L87.56 9.81Q87.02 11.40 86.56 12.84L86.56 12.84L86.56 12.84Q86.10 14.28 85.74 15.50L85.74 15.50L85.74 15.50Q85.37 16.72 85.11 17.68L85.11 17.68L85.11 17.68Q84.85 18.63 84.74 19.22ZM97.36 15.67L97.36 15.67L97.36 15.67Q96.56 15.58 96.08 14.97L96.08 14.97L96.08 14.97Q95.61 14.35 95.61 13.40L95.61 13.40L95.61 13.40Q95.61 12.84 95.77 12.24L95.77 12.24L95.77 12.24Q95.94 11.63 96.25 11.07L96.25 11.07L96.25 11.07Q96.56 10.50 96.98 10.00L96.98 10.00L96.98 10.00Q97.40 9.49 97.89 9.13L97.89 9.13L97.89 9.13Q98.66 8.55 99.33 8.55L99.33 8.55L99.33 8.55Q99.78 8.79 100.21 9.55L100.21 9.55L100.21 9.55Q100.28 9.55 100.34 9.54L100.34 9.54L100.34 9.54Q100.39 9.53 100.46 9.53L100.46 9.53L100.46 9.53Q101.21 9.53 101.21 10.85L101.21 10.85L101.21 10.85Q101.21 11.73 100.92 12.52L100.92 12.52L100.92 12.52Q100.63 13.31 100.12 13.96L100.12 13.96L100.12 13.96Q99.61 14.60 98.90 15.04L98.90 15.04L98.90 15.04Q98.20 15.48 97.36 15.67ZM98.07 11.26L98.07 11.26L98.07 11.26Q97.83 11.58 97.62 11.96L97.62 11.96L97.62 11.96Q97.41 12.33 97.26 12.72L97.26 12.72L97.26 12.72Q97.10 13.10 97.02 13.46L97.02 13.46L97.02 13.46Q96.94 13.82 96.94 14.10L96.94 14.10L96.94 14.10Q96.94 14.43 97.05 14.74L97.05 14.74L97.05 14.74Q97.16 15.05 97.30 15.09L97.30 15.09L97.30 15.09Q97.93 14.95 98.45 14.57L98.45 14.57L98.45 14.57Q98.98 14.18 99.36 13.61L99.36 13.61L99.36 13.61Q99.75 13.03 99.97 12.31L99.97 12.31L99.97 12.31Q100.18 11.58 100.18 10.75L100.18 10.75L100.18 10.75Q100.18 10.39 100.14 10.18L100.14 10.18L100.14 10.18Q100.10 9.97 100.00 9.81L100.00 9.81L100.00 9.81Q99.39 10.00 98.90 10.40L98.90 10.40L98.90 10.40Q98.42 10.81 98.07 11.26ZM108.54 14.90L108.54 14.90L108.54 14.90Q108.61 14.49 108.79 13.82L108.79 13.82L108.79 13.82Q108.96 13.16 109.20 12.41L109.20 12.41L109.20 12.41Q109.44 11.66 109.70 10.91L109.70 10.91L109.70 10.91Q109.97 10.15 110.22 9.55L110.22 9.55L110.22 9.55Q110.40 9.11 110.54 8.87L110.54 8.87L110.54 8.87Q110.68 8.62 110.85 8.46L110.85 8.46L110.85 8.46Q111.05 8.48 111.26 8.55L111.26 8.55L111.26 8.55Q111.47 8.62 111.66 8.72L111.66 8.72L111.66 8.72Q111.86 8.82 112.01 8.93L112.01 8.93L112.01 8.93Q112.17 9.03 112.25 9.13L112.25 9.13L112.25 9.13Q111.87 9.58 111.59 10.15L111.59 10.15L111.59 10.15Q111.30 10.72 111.01 11.62L111.01 11.62L111.01 11.62Q111.76 10.95 112.34 10.33L112.34 10.33L112.34 10.33Q112.92 9.72 113.43 8.96L113.43 8.96L113.43 8.96Q113.51 8.89 113.72 8.89L113.72 8.89L113.72 8.89Q113.92 8.89 114.10 8.95L114.10 8.95L114.10 8.95Q114.28 9.02 114.35 9.13L114.35 9.13L114.35 9.13Q114.10 9.80 114.10 10.46L114.10 10.46L114.10 10.46Q114.10 11.07 114.28 11.38L114.28 11.38L114.28 11.38Q114.27 11.47 114.09 11.70L114.09 11.70L114.09 11.70Q113.92 11.94 113.71 12.15L113.71 12.15L113.71 12.15Q113.33 11.96 113.04 11.61L113.04 11.61L113.04 11.61Q112.74 11.27 112.60 10.86L112.60 10.86L112.60 10.86Q111.94 11.33 111.48 11.77L111.48 11.77L111.48 11.77Q111.02 12.21 110.69 12.75L110.69 12.75L110.69 12.75Q110.36 13.29 110.13 13.99L110.13 13.99L110.13 13.99Q109.90 14.69 109.69 15.65L109.69 15.65L109.69 15.65Q109.56 15.64 109.39 15.56L109.39 15.56L109.39 15.56Q109.21 15.48 109.04 15.37L109.04 15.37L109.04 15.37Q108.86 15.26 108.72 15.13L108.72 15.13L108.72 15.13Q108.58 15.01 108.54 14.90ZM141.44 7.63L141.44 7.63L141.44 7.63Q141.44 8.40 141.06 9.10L141.06 9.10L141.06 9.10Q140.67 9.80 140.02 10.32L140.02 10.32L140.02 10.32Q139.37 10.85 138.49 11.16L138.49 11.16L138.49 11.16Q137.62 11.47 136.64 11.47L136.64 11.47L136.64 11.47Q136.29 11.47 136.09 11.38L136.09 11.38L136.09 11.38Q135.88 11.28 135.63 11.02L135.63 11.02L135.63 11.02Q134.93 12.54 134.49 13.82L134.49 13.82L134.49 13.82Q134.05 15.11 133.80 16.31L133.80 16.31L133.80 16.31Q133.27 16.18 132.93 15.87L132.93 15.87L132.93 15.87Q132.59 15.55 132.31 15.08L132.31 15.08L132.31 15.08Q132.45 14.81 132.65 14.38L132.65 14.38L132.65 14.38Q132.85 13.94 133.13 13.31L133.13 13.31L133.13 13.31Q133.41 12.67 133.78 11.78L133.78 11.78L133.78 11.78Q134.15 10.89 134.65 9.70L134.65 9.70L134.65 9.70Q134.88 9.16 135.04 8.75L135.04 8.75L135.04 8.75Q135.21 8.34 135.34 7.99L135.34 7.99L135.34 7.99Q135.46 7.63 135.57 7.28L135.57 7.28L135.57 7.28Q135.67 6.93 135.79 6.51L135.79 6.51L135.79 6.51Q135.13 6.72 134.57 7L134.57 7L134.57 7Q134.02 7.28 133.66 7.59L133.66 7.59L133.66 7.59Q133.53 7.50 133.40 7.34L133.40 7.34L133.40 7.34Q133.27 7.17 133.15 6.96L133.15 6.96L133.15 6.96Q133.04 6.76 132.96 6.55L132.96 6.55L132.96 6.55Q132.87 6.34 132.86 6.17L132.86 6.17L132.86 6.17Q133.27 5.89 133.87 5.66L133.87 5.66L133.87 5.66Q134.47 5.42 135.16 5.24L135.16 5.24L135.16 5.24Q135.84 5.07 136.58 4.97L136.58 4.97L136.58 4.97Q137.31 4.87 137.98 4.87L137.98 4.87L137.98 4.87Q138.78 4.87 139.43 5.07L139.43 5.07L139.43 5.07Q140.07 5.28 140.52 5.64L140.52 5.64L140.52 5.64Q140.97 6.01 141.20 6.51L141.20 6.51L141.20 6.51Q141.44 7.01 141.44 7.63ZM138.95 5.95L138.95 5.95L138.95 5.95Q138.42 5.95 137.86 6.03L137.86 6.03L138.03 6.29L138.03 6.29Q137.89 6.47 137.68 6.83L137.68 6.83L137.68 6.83Q137.47 7.20 137.21 7.71L137.21 7.71L137.21 7.71Q136.96 8.22 136.66 8.85L136.66 8.85L136.66 8.85Q136.36 9.48 136.02 10.18L136.02 10.18L136.02 10.18Q137.12 10.18 138.01 9.97L138.01 9.97L138.01 9.97Q138.91 9.77 139.54 9.41L139.54 9.41L139.54 9.41Q140.18 9.06 140.54 8.58L140.54 8.58L140.54 8.58Q140.90 8.11 140.90 7.56L140.90 7.56L140.90 7.56Q140.90 6.83 140.41 6.39L140.41 6.39L140.41 6.39Q139.92 5.95 138.95 5.95ZM147.83 14.28L147.83 14.28L147.83 14.28Q147.83 13.66 148.12 12.55L148.12 12.55L148.12 12.55Q148.41 11.44 148.95 9.95L148.95 9.95L148.95 9.95Q149.81 7.59 150.58 6.01L150.58 6.01L150.58 6.01Q151.34 4.44 152.07 3.56L152.07 3.56L152.07 3.56Q152.24 3.58 152.48 3.70L152.48 3.70L152.48 3.70Q152.73 3.81 152.96 3.94L152.96 3.94L152.96 3.94Q153.20 4.07 153.39 4.21L153.39 4.21L153.39 4.21Q153.58 4.35 153.64 4.44L153.64 4.44L153.64 4.44Q152.54 5.73 151.72 7.21L151.72 7.21L151.72 7.21Q150.89 8.69 150.21 10.61L150.21 10.61L150.21 10.61Q149.62 12.26 149.31 13.59L149.31 13.59L149.31 13.59Q149.00 14.91 149.00 15.79L149.00 15.79L149.00 15.79Q149.00 16.03 149.00 16.09L149.00 16.09L149.00 16.09Q149.00 16.14 149.02 16.20L149.02 16.20L149.02 16.20Q148.82 16.17 148.68 16.10L148.68 16.10L148.68 16.10Q148.54 16.03 148.50 15.93L148.50 15.93L148.50 15.93Q148.47 15.86 148.34 15.73L148.34 15.73L148.34 15.73Q148.22 15.60 148.12 15.53L148.12 15.53L148.12 15.53Q147.99 15.44 147.91 15.09L147.91 15.09L147.91 15.09Q147.83 14.73 147.83 14.28ZM162.92 9.52L162.92 9.52L162.92 9.52Q163.06 9.52 163.25 9.57L163.25 9.57L163.25 9.57Q163.44 9.62 163.59 9.70L163.59 9.70L163.59 9.70Q163.74 9.77 163.85 9.86L163.85 9.86L163.85 9.86Q163.95 9.94 163.95 10.01L163.95 10.01L163.95 10.01Q163.67 10.60 163.44 11.19L163.44 11.19L163.44 11.19Q163.20 11.79 163.03 12.33L163.03 12.33L163.03 12.33Q162.86 12.88 162.77 13.36L162.77 13.36L162.77 13.36Q162.68 13.83 162.68 14.18L162.68 14.18L162.68 14.18Q162.68 14.57 162.76 14.83L162.76 14.83L162.76 14.83Q162.85 15.09 163.04 15.20L163.04 15.20L163.04 15.20Q162.88 15.32 162.61 15.39L162.61 15.39L162.61 15.39Q162.34 15.46 162.13 15.46L162.13 15.46L162.13 15.46Q161.38 15.46 161.38 14.42L161.38 14.42L161.38 14.42Q161.38 13.62 161.91 12.24L161.91 12.24L161.91 12.24Q161.63 12.88 161.27 13.45L161.27 13.45L161.27 13.45Q160.90 14.01 160.52 14.45L160.52 14.45L160.52 14.45Q160.15 14.88 159.76 15.15L159.76 15.15L159.76 15.15Q159.38 15.43 159.05 15.48L159.05 15.48L159.05 15.48Q158.54 15.46 158.21 14.99L158.21 14.99L158.21 14.99Q157.89 14.52 157.89 13.79L157.89 13.79L157.89 13.79Q157.89 13.01 158.23 12.14L158.23 12.14L158.23 12.14Q158.56 11.27 159.09 10.53L159.09 10.53L159.09 10.53Q159.61 9.79 160.23 9.29L160.23 9.29L160.23 9.29Q160.85 8.79 161.42 8.76L161.42 8.76L161.42 8.76Q161.56 8.81 161.73 8.93L161.73 8.93L161.73 8.93Q161.91 9.06 162.07 9.23L162.07 9.23L162.07 9.23Q162.23 9.39 162.34 9.57L162.34 9.57L162.34 9.57Q162.46 9.74 162.47 9.87L162.47 9.87L162.47 9.87Q161.91 9.95 161.31 10.42L161.31 10.42L161.31 10.42Q160.72 10.88 160.24 11.53L160.24 11.53L160.24 11.53Q159.75 12.18 159.45 12.92L159.45 12.92L159.45 12.92Q159.14 13.66 159.14 14.31L159.14 14.31L159.14 14.31Q159.14 14.57 159.33 14.64L159.33 14.64L159.33 14.64Q159.74 14.56 160.27 13.95L160.27 13.95L160.27 13.95Q160.80 13.34 161.56 12.07L161.56 12.07L161.56 12.07Q161.70 11.82 161.87 11.51L161.87 11.51L161.87 11.51Q162.05 11.20 162.23 10.86L162.23 10.86L162.23 10.86Q162.41 10.53 162.59 10.18L162.59 10.18L162.59 10.18Q162.76 9.84 162.92 9.52ZM173.94 8.39L173.94 8.39L173.94 8.39Q174.30 8.50 174.62 8.88L174.62 8.88L174.62 8.88Q174.94 9.27 175.10 9.73L175.10 9.73L175.10 9.73Q174.94 10.11 174.62 10.64L174.62 10.64L174.62 10.64Q174.30 11.17 173.98 11.72L173.98 11.72L173.98 11.72Q173.66 12.28 173.40 12.78L173.40 12.78L173.40 12.78Q173.14 13.27 173.10 13.59L173.10 13.59L173.10 13.59Q173.32 13.36 173.59 13.04L173.59 13.04L173.59 13.04Q173.87 12.73 174.12 12.41L174.12 12.41L174.12 12.41Q174.38 12.10 174.61 11.84L174.61 11.84L174.61 11.84Q174.83 11.58 174.96 11.45L174.96 11.45L174.96 11.45Q175.22 11.17 175.59 10.80L175.59 10.80L175.59 10.80Q175.95 10.43 176.35 10.10L176.35 10.10L176.35 10.10Q176.75 9.77 177.16 9.54L177.16 9.54L177.16 9.54Q177.56 9.31 177.90 9.31L177.90 9.31L177.90 9.31Q178.26 9.31 178.51 9.55L178.51 9.55L178.51 9.55Q178.75 9.80 178.89 10.07L178.89 10.07L178.89 10.07Q178.89 10.09 178.79 10.14L178.79 10.14L178.79 10.14Q178.68 10.19 178.49 10.42L178.49 10.42L178.49 10.42Q178.29 10.67 178.04 11.11L178.04 11.11L178.04 11.11Q177.80 11.55 177.57 12.06L177.57 12.06L177.57 12.06Q177.34 12.57 177.18 13.10L177.18 13.10L177.18 13.10Q177.03 13.64 177.03 14.07L177.03 14.07L177.03 14.07Q177.03 14.42 177.12 14.52L177.12 14.52L177.12 14.52Q177.21 14.62 177.38 14.62L177.38 14.62L177.38 14.62Q177.53 14.62 177.70 14.55L177.70 14.55L177.70 14.55Q177.87 14.48 177.97 14.48L177.97 14.48L177.97 14.48Q178.02 14.50 178.06 14.60L178.06 14.60L178.06 14.60Q178.09 14.69 178.09 14.76L178.09 14.76L178.09 14.76Q177.98 14.85 177.83 14.95L177.83 14.95L177.83 14.95Q177.67 15.05 177.51 15.13L177.51 15.13L177.51 15.13Q177.34 15.22 177.18 15.27L177.18 15.27L177.18 15.27Q177.02 15.33 176.89 15.33L176.89 15.33L176.89 15.33Q176.48 15.33 176.22 15.21L176.22 15.21L176.22 15.21Q175.97 15.09 175.82 14.90L175.82 14.90L175.82 14.90Q175.67 14.70 175.62 14.43L175.62 14.43L175.62 14.43Q175.56 14.15 175.56 13.85L175.56 13.85L175.56 13.85Q175.56 13.68 175.59 13.47L175.59 13.47L175.59 13.47Q175.62 13.26 175.70 12.97L175.70 12.97L175.70 12.97Q175.78 12.68 175.94 12.29L175.94 12.29L175.94 12.29Q176.09 11.89 176.33 11.33L176.33 11.33L176.33 11.33Q176.30 11.33 175.95 11.52L175.95 11.52L175.95 11.52Q175.60 11.72 175.20 12.12L175.20 12.12L175.20 12.12Q174.54 12.75 174.01 13.37L174.01 13.37L174.01 13.37Q173.49 13.99 172.94 14.74L172.94 14.74L172.94 14.74Q172.63 15.18 172.40 15.48L172.40 15.48L172.40 15.48Q172.17 15.78 172.00 15.88L172.00 15.88L172.00 15.88Q171.71 15.71 171.57 15.41L171.57 15.41L171.57 15.41Q171.43 15.11 171.36 14.78L171.36 14.78L171.36 14.78Q171.36 14.52 171.44 14.11L171.44 14.11L171.44 14.11Q171.51 13.71 171.65 13.21L171.65 13.21L171.65 13.21Q171.78 12.71 171.98 12.17L171.98 12.17L171.98 12.17Q172.17 11.62 172.41 11.07L172.41 11.07L172.41 11.07Q172.94 9.84 173.38 9.14L173.38 9.14L173.38 9.14Q173.82 8.44 173.94 8.39ZM186.26 13.86L186.26 13.86L186.26 13.86Q186.26 13.36 186.51 12.46L186.51 12.46L186.51 12.46Q186.77 11.56 187.19 10.50L187.19 10.50L187.19 10.50Q187.61 9.44 188.15 8.30L188.15 8.30L188.15 8.30Q188.68 7.17 189.22 6.19L189.22 6.19L189.22 6.19Q189.76 5.21 190.25 4.49L190.25 4.49L190.25 4.49Q190.75 3.78 191.10 3.53L191.10 3.53L191.10 3.53Q191.30 3.54 191.53 3.70L191.53 3.70L191.53 3.70Q191.76 3.85 191.95 4.07L191.95 4.07L191.95 4.07Q192.15 4.28 192.28 4.52L192.28 4.52L192.28 4.52Q192.42 4.76 192.42 4.96L192.42 4.96L192.42 4.96Q191.79 5.46 191.13 6.25L191.13 6.25L191.13 6.25Q190.48 7.04 189.90 7.99L189.90 7.99L189.90 7.99Q189.31 8.93 188.81 9.99L188.81 9.99L188.81 9.99Q188.31 11.05 187.98 12.07L187.98 12.07L187.98 12.07Q188.43 11.30 188.92 10.67L188.92 10.67L188.92 10.67Q189.41 10.04 189.90 9.59L189.90 9.59L189.90 9.59Q190.39 9.14 190.85 8.90L190.85 8.90L190.85 8.90Q191.32 8.65 191.74 8.64L191.74 8.64L191.74 8.64Q192.36 9.09 192.36 9.83L192.36 9.83L192.36 9.83Q192.36 10.28 192.18 10.73L192.18 10.73L192.18 10.73Q192.00 11.19 191.69 11.57L191.69 11.57L191.69 11.57Q191.39 11.96 191.01 12.23L191.01 12.23L191.01 12.23Q190.62 12.50 190.20 12.59L190.20 12.59L190.20 12.59Q190.34 13.08 190.56 13.58L190.56 13.58L190.56 13.58Q190.78 14.08 191.08 14.56L191.08 14.56L191.08 14.56Q191.38 15.04 191.76 15.44L191.76 15.44L191.76 15.44Q192.15 15.85 192.64 16.13L192.64 16.13L192.64 16.13Q192.57 16.27 192.43 16.41L192.43 16.41L192.43 16.41Q192.29 16.55 192.09 16.65L192.09 16.65L192.09 16.65Q191.90 16.76 191.67 16.82L191.67 16.82L191.67 16.82Q191.44 16.88 191.21 16.88L191.21 16.88L191.21 16.88Q190.83 16.88 190.50 16.51L190.50 16.51L190.50 16.51Q190.18 16.13 189.91 15.41L189.91 15.41L189.91 15.41Q189.70 14.84 189.50 14.04L189.50 14.04L189.50 14.04Q189.31 13.24 189.15 12.38L189.15 12.38L189.15 12.38Q189.35 12.25 189.64 12.00L189.64 12.00L189.64 12.00Q189.94 11.76 190.26 11.44L190.26 11.44L190.26 11.44Q191.49 10.25 191.49 9.38L191.49 9.38L191.49 9.38Q191.49 9.27 191.34 9.27L191.34 9.27L191.34 9.27Q191.06 9.28 190.68 9.53L190.68 9.53L190.68 9.53Q190.30 9.79 189.87 10.23L189.87 10.23L189.87 10.23Q189.45 10.68 189.01 11.28L189.01 11.28L189.01 11.28Q188.57 11.89 188.16 12.59L188.16 12.59L188.16 12.59Q187.99 12.87 187.85 13.23L187.85 13.23L187.85 13.23Q187.71 13.59 187.61 13.98L187.61 13.98L187.61 13.98Q187.50 14.36 187.45 14.74L187.45 14.74L187.45 14.74Q187.39 15.12 187.39 15.44L187.39 15.44L187.39 15.44Q187.39 15.64 187.43 15.76L187.43 15.76L187.43 15.76Q187.00 15.72 186.90 15.54L186.90 15.54L186.90 15.54Q186.79 15.37 186.71 15.27L186.71 15.27L186.71 15.27Q186.63 15.16 186.55 15.09L186.55 15.09L186.55 15.09Q186.42 14.99 186.34 14.67L186.34 14.67L186.34 14.67Q186.26 14.35 186.26 13.86Z"></path></g></svg>